<?xml version="1.0" standalone="no"?>
<!DOCTYPE svg PUBLIC "-//W3C//DTD SVG 20010904//EN"
 "http://www.w3.org/TR/2001/REC-SVG-20010904/DTD/svg10.dtd">
<svg version="1.0" xmlns="http://www.w3.org/2000/svg"
 width="400.000000pt" height="400.000000pt" viewBox="0 0 400.000000 400.000000"
 preserveAspectRatio="xMidYMid meet">
<metadata>
Created by potrace 1.14, written by Peter Selinger 2001-2017
</metadata>
<g transform="translate(0.000000,400.000000) scale(0.100000,-0.100000)"
fill="#000000" stroke="none">
<path d="M1755 3884 c-757 -92 -1403 -663 -1595 -1408 -222 -867 190 -1774
990 -2176 279 -140 591 -208 905 -196 312 11 575 79 834 217 1114 593 1354
2085 481 2993 -422 439 -1004 645 -1615 570z m880 -1152 c67 -31 92 -56 126
-127 31 -65 33 -63 -32 -78 -23 -6 -28 -2 -44 34 -39 86 -118 125 -240 117
-151 -10 -239 -105 -252 -273 -11 -146 36 -253 137 -309 50 -28 63 -31 146
-31 84 0 96 3 160 35 l69 35 3 78 3 77 -116 0 -115 0 0 45 0 45 160 0 160 0 0
-144 0 -145 -29 -20 c-104 -74 -247 -111 -359 -91 -132 22 -217 78 -270 177
-97 184 -49 438 102 541 74 49 126 62 241 59 78 -2 111 -8 150 -25z m-1162
-317 c104 -310 111 -328 122 -300 6 17 58 166 115 333 l103 302 64 0 63 0 0
-385 0 -385 -45 0 -45 0 -2 321 -3 321 -111 -319 -111 -318 -44 -3 -44 -3
-112 328 -112 328 0 -327 -1 -328 -50 0 -50 0 0 385 0 386 77 -3 76 -3 110
-330z m853 -886 c17 -19 19 -38 19 -219 0 -152 -3 -201 -14 -213 -12 -15 -48
-17 -331 -17 -283 0 -319 2 -331 17 -11 12 -14 61 -14 213 0 181 2 200 19 219
19 20 27 21 326 21 299 0 307 -1 326 -21z m-421 -469 c8 -13 178 -13 191 0 7
7 65 10 155 8 132 -3 144 -5 147 -22 6 -27 -18 -65 -50 -82 -35 -18 -656 -21
-691 -3 -44 22 -72 81 -50 102 11 11 291 8 298 -3z"/>
<path d="M1705 1497 c-3 -7 -4 -94 -3 -192 l3 -180 295 0 295 0 0 190 0 190
-293 3 c-233 2 -294 0 -297 -11z m573 -9 c17 -17 17 -329 0 -346 -17 -17 -539
-17 -556 0 -17 17 -17 329 0 346 17 17 539 17 556 0z"/>
<path d="M1750 1310 l0 -140 250 0 250 0 0 140 0 140 -250 0 -250 0 0 -140z"/>
<path d="M1674 1005 c30 -22 623 -22 652 0 17 14 7 15 -101 10 -66 -2 -164 -7
-219 -11 -64 -3 -102 -2 -109 5 -7 7 -57 11 -127 11 -103 -1 -113 -2 -96 -15z"/>
</g>
</svg>
